
<svg width="138px" height="53px" viewBox="0 0 138 53" version="1.1" xmlns="http://www.w3.org/2000/svg" xmlns:xlink="http://www.w3.org/1999/xlink">
    <g id="Page-1" stroke="none" stroke-width="1" fill="none" fill-rule="evenodd">
        <g id="Artboard" transform="translate(-421.000000, -211.000000)" fill-rule="nonzero">
            <g id="netti&gt;&gt;&gt;-kasinot" transform="translate(421.260000, 211.988000)">
                <path d="M7.524,24.012 L7.524,14.796 L14.112,24.012 L20.448,24.012 L20.448,-1.13686838e-13 L12.924,-1.13686838e-13 L12.924,9.252 L6.3,-1.13686838e-13 L0,-1.13686838e-13 L0,24.012 L7.524,24.012 Z M4.284,21.132 L3.348,21.132 L3.348,2.88 L4.284,2.88 L16.164,19.512 L16.164,2.88 L17.1,2.88 L17.1,21.132 L16.164,21.132 L4.284,4.5 L4.284,21.132 Z M37.368,24.012 L37.368,17.712 L30.636,17.712 L30.636,14.94 L37.008,14.94 L37.008,8.964 L30.636,8.964 L30.636,6.3 L37.116,6.3 L37.116,-1.13686838e-13 L22.968,-1.13686838e-13 L22.968,24.012 L37.368,24.012 Z M34.704,21.132 L26.568,21.132 L26.568,2.88 L34.704,2.88 L34.704,3.744 L27.504,3.744 L27.504,11.52 L34.344,11.52 L34.344,12.384 L27.504,12.384 L27.504,20.268 L34.704,20.268 L34.704,21.132 Z M50.616,24.012 L50.616,6.3 L55.044,6.3 L55.044,-1.13686838e-13 L38.268,-1.13686838e-13 L38.268,6.3 L42.696,6.3 L42.696,24.012 L50.616,24.012 Z M47.124,21.132 L46.188,21.132 L46.188,3.744 L41.04,3.744 L41.04,2.88 L52.272,2.88 L52.272,3.744 L47.124,3.744 L47.124,21.132 Z M67.392,24.012 L67.392,6.3 L71.82,6.3 L71.82,-1.13686838e-13 L55.044,-1.13686838e-13 L55.044,6.3 L59.472,6.3 L59.472,24.012 L67.392,24.012 Z M63.9,21.132 L62.964,21.132 L62.964,3.744 L57.816,3.744 L57.816,2.88 L69.048,2.88 L69.048,3.744 L63.9,3.744 L63.9,21.132 Z M81.216,24.012 L81.216,-1.13686838e-13 L73.08,-1.13686838e-13 L73.08,24.012 L81.216,24.012 Z M77.616,21.132 L76.68,21.132 L76.68,2.88 L77.616,2.88 L77.616,21.132 Z M83.376,24.012 L98.496,17.892 L98.496,13.428 L83.376,7.308 L83.376,13.284 L89.28,15.66 L83.376,18.036 L83.376,24.012 Z M85.536,20.484 L85.536,19.548 L95.22,15.66 L85.536,11.772 L85.536,10.836 L96.336,15.228 L96.336,16.092 L85.536,20.484 Z M100.296,24.012 L115.416,17.892 L115.416,13.428 L100.296,7.308 L100.296,13.284 L106.2,15.66 L100.296,18.036 L100.296,24.012 Z M102.456,20.484 L102.456,19.548 L112.14,15.66 L102.456,11.772 L102.456,10.836 L113.256,15.228 L113.256,16.092 L102.456,20.484 Z M117.216,24.012 L132.336,17.892 L132.336,13.428 L117.216,7.308 L117.216,13.284 L123.12,15.66 L117.216,18.036 L117.216,24.012 Z M119.376,20.484 L119.376,19.548 L129.06,15.66 L119.376,11.772 L119.376,10.836 L130.176,15.228 L130.176,16.092 L119.376,20.484 Z M7.776,51.012 L7.776,43.596 L12.888,51.012 L22.14,51.012 L13.248,37.98 L21.708,27 L12.312,27 L7.776,32.544 L7.776,27 L0,27 L0,51.012 L7.776,51.012 Z M4.536,48.132 L3.6,48.132 L3.6,29.88 L4.536,29.88 L4.536,41.832 L14.22,29.88 L15.372,29.88 L8.928,37.872 L15.948,48.132 L14.832,48.132 L8.28,38.628 L4.536,43.272 L4.536,48.132 Z M28.44,51.012 L29.232,48.852 L36.504,48.852 L37.296,51.012 L44.856,51.012 L35.748,27 L29.988,27 L20.88,51.012 L28.44,51.012 Z M26.244,48.132 L25.236,48.132 L32.184,29.88 L33.552,29.88 L40.5,48.132 L39.492,48.132 L38.808,46.332 L26.928,46.332 L26.244,48.132 Z M38.484,45.468 L32.868,30.744 L27.252,45.468 L38.484,45.468 Z M34.488,43.56 L31.248,43.56 L32.868,39.348 L34.488,43.56 Z M51.264,51.624 C52.776,51.624 54.084,51.426 55.188,51.03 C56.292,50.634 57.198,50.094 57.906,49.41 C58.614,48.726 59.136,47.922 59.472,46.998 C59.808,46.074 59.976,45.084 59.976,44.028 C59.976,43.02 59.814,42.108 59.49,41.292 C59.166,40.476 58.77,39.744 58.302,39.096 C57.834,38.448 57.318,37.872 56.754,37.368 C56.19,36.864 55.674,36.42 55.206,36.036 C54.738,35.652 54.342,35.316 54.018,35.028 C53.694,34.74 53.532,34.5 53.532,34.308 C53.532,34.092 53.604,33.924 53.748,33.804 C53.892,33.684 54.06,33.6 54.252,33.552 C54.444,33.504 54.648,33.474 54.864,33.462 C55.08,33.45 55.26,33.444 55.404,33.444 C55.668,33.444 55.92,33.456 56.16,33.48 C56.4,33.504 56.616,33.528 56.808,33.552 C57.048,33.576 57.264,33.6 57.456,33.624 L57.456,33.624 L57.456,26.892 C56.952,26.82 56.436,26.748 55.908,26.676 C55.452,26.628 54.936,26.574 54.36,26.514 C53.784,26.454 53.208,26.424 52.632,26.424 C51.528,26.424 50.49,26.574 49.518,26.874 C48.546,27.174 47.7,27.612 46.98,28.188 C46.26,28.764 45.696,29.484 45.288,30.348 C44.88,31.212 44.676,32.208 44.676,33.336 C44.676,34.344 44.844,35.238 45.18,36.018 C45.516,36.798 45.942,37.5 46.458,38.124 C46.974,38.748 47.526,39.3 48.114,39.78 C48.702,40.26 49.254,40.698 49.77,41.094 C50.286,41.49 50.712,41.85 51.048,42.174 C51.384,42.498 51.552,42.816 51.552,43.128 C51.552,43.944 51,44.352 49.896,44.352 C49.272,44.352 48.654,44.316 48.042,44.244 C47.43,44.172 46.884,44.076 46.404,43.956 C45.828,43.86 45.276,43.728 44.748,43.56 L44.748,43.56 L44.748,50.76 C45.324,50.928 45.96,51.072 46.656,51.192 C47.256,51.312 47.946,51.414 48.726,51.498 C49.506,51.582 50.352,51.624 51.264,51.624 Z M51.048,48.24 C50.664,48.24 50.286,48.222 49.914,48.186 C49.542,48.15 49.188,48.108 48.852,48.06 C48.468,48.012 48.108,47.952 47.772,47.88 L47.772,47.88 L47.772,46.944 C48.108,47.016 48.456,47.076 48.816,47.124 C49.488,47.244 50.232,47.304 51.048,47.304 C52.416,47.304 53.49,47.004 54.27,46.404 C55.05,45.804 55.44,44.928 55.44,43.776 C55.44,43.152 55.266,42.552 54.918,41.976 C54.57,41.4 54.126,40.842 53.586,40.302 C53.046,39.762 52.47,39.228 51.858,38.7 C51.246,38.172 50.67,37.626 50.13,37.062 C49.59,36.498 49.146,35.922 48.798,35.334 C48.45,34.746 48.276,34.116 48.276,33.444 C48.276,32.196 48.696,31.278 49.536,30.69 C50.376,30.102 51.444,29.808 52.74,29.808 C52.956,29.808 53.166,29.814 53.37,29.826 C53.574,29.838 53.76,29.856 53.928,29.88 C54.12,29.904 54.3,29.916 54.468,29.916 L54.468,29.916 L54.468,30.852 C54.276,30.852 54.084,30.84 53.892,30.816 C53.7,30.792 53.502,30.774 53.298,30.762 C53.094,30.75 52.896,30.744 52.704,30.744 C51.48,30.744 50.592,30.978 50.04,31.446 C49.488,31.914 49.212,32.58 49.212,33.444 C49.212,34.02 49.386,34.578 49.734,35.118 C50.082,35.658 50.526,36.198 51.066,36.738 C51.606,37.278 52.182,37.812 52.794,38.34 C53.406,38.868 53.982,39.42 54.522,39.996 C55.062,40.572 55.506,41.172 55.854,41.796 C56.202,42.42 56.376,43.08 56.376,43.776 C56.376,44.592 56.226,45.282 55.926,45.846 C55.626,46.41 55.224,46.872 54.72,47.232 C54.216,47.592 53.646,47.85 53.01,48.006 C52.374,48.162 51.72,48.24 51.048,48.24 Z M69.732,51.012 L69.732,27 L61.596,27 L61.596,51.012 L69.732,51.012 Z M66.132,48.132 L65.196,48.132 L65.196,29.88 L66.132,29.88 L66.132,48.132 Z M79.776,51.012 L79.776,41.796 L86.364,51.012 L92.7,51.012 L92.7,27 L85.176,27 L85.176,36.252 L78.552,27 L72.252,27 L72.252,51.012 L79.776,51.012 Z M76.536,48.132 L75.6,48.132 L75.6,29.88 L76.536,29.88 L88.416,46.512 L88.416,29.88 L89.352,29.88 L89.352,48.132 L88.416,48.132 L76.536,31.5 L76.536,48.132 Z" id="netti&gt;&gt;&gt;kasin" fill="#FED766"></path>
                <path d="M107.28,51.624 C109.008,51.624 110.64,51.294 112.176,50.634 C113.712,49.974 115.05,49.074 116.19,47.934 C117.33,46.794 118.23,45.456 118.89,43.92 C119.55,42.384 119.88,40.752 119.88,39.024 C119.88,37.296 119.55,35.664 118.89,34.128 C118.23,32.592 117.33,31.254 116.19,30.114 C115.05,28.974 113.712,28.074 112.176,27.414 C110.64,26.754 109.008,26.424 107.28,26.424 C105.552,26.424 103.92,26.754 102.384,27.414 C100.848,28.074 99.51,28.974 98.37,30.114 C97.23,31.254 96.33,32.592 95.67,34.128 C95.01,35.664 94.68,37.296 94.68,39.024 C94.68,40.752 95.01,42.384 95.67,43.92 C96.33,45.456 97.23,46.794 98.37,47.934 C99.51,49.074 100.848,49.974 102.384,50.634 C103.92,51.294 105.552,51.624 107.28,51.624 Z M107.28,48.24 C106.008,48.24 104.814,48 103.698,47.52 C102.582,47.04 101.604,46.38 100.764,45.54 C99.924,44.7 99.264,43.722 98.784,42.606 C98.304,41.49 98.064,40.296 98.064,39.024 C98.064,37.752 98.304,36.558 98.784,35.442 C99.264,34.326 99.924,33.348 100.764,32.508 C101.604,31.668 102.582,31.008 103.698,30.528 C104.814,30.048 106.008,29.808 107.28,29.808 C108.552,29.808 109.746,30.048 110.862,30.528 C111.978,31.008 112.956,31.668 113.796,32.508 C114.636,33.348 115.296,34.326 115.776,35.442 C116.256,36.558 116.496,37.752 116.496,39.024 C116.496,40.296 116.256,41.49 115.776,42.606 C115.296,43.722 114.636,44.7 113.796,45.54 C112.956,46.38 111.978,47.04 110.862,47.52 C109.746,48 108.552,48.24 107.28,48.24 Z M107.28,47.304 C108.432,47.304 109.506,47.088 110.502,46.656 C111.498,46.224 112.374,45.63 113.13,44.874 C113.886,44.118 114.48,43.242 114.912,42.246 C115.344,41.25 115.56,40.176 115.56,39.024 C115.56,37.872 115.344,36.798 114.912,35.802 C114.48,34.806 113.886,33.93 113.13,33.174 C112.374,32.418 111.498,31.824 110.502,31.392 C109.506,30.96 108.432,30.744 107.28,30.744 C106.128,30.744 105.054,30.96 104.058,31.392 C103.062,31.824 102.186,32.418 101.43,33.174 C100.674,33.93 100.08,34.806 99.648,35.802 C99.216,36.798 99,37.872 99,39.024 C99,40.176 99.216,41.25 99.648,42.246 C100.08,43.242 100.674,44.118 101.43,44.874 C102.186,45.63 103.062,46.224 104.058,46.656 C105.054,47.088 106.128,47.304 107.28,47.304 Z M107.28,44.064 C106.584,44.064 105.93,43.932 105.318,43.668 C104.706,43.404 104.172,43.044 103.716,42.588 C103.26,42.132 102.9,41.598 102.636,40.986 C102.372,40.374 102.24,39.72 102.24,39.024 C102.24,38.328 102.372,37.674 102.636,37.062 C102.9,36.45 103.26,35.916 103.716,35.46 C104.172,35.004 104.706,34.644 105.318,34.38 C105.93,34.116 106.584,33.984 107.28,33.984 C107.976,33.984 108.63,34.116 109.242,34.38 C109.854,34.644 110.388,35.004 110.844,35.46 C111.3,35.916 111.66,36.45 111.924,37.062 C112.188,37.674 112.32,38.328 112.32,39.024 C112.32,39.72 112.188,40.374 111.924,40.986 C111.66,41.598 111.3,42.132 110.844,42.588 C110.388,43.044 109.854,43.404 109.242,43.668 C108.63,43.932 107.976,44.064 107.28,44.064 Z" id="o" fill="#FFFFFF"></path>
                <path d="M132.948,51.012 L132.948,33.3 L137.376,33.3 L137.376,27 L120.6,27 L120.6,33.3 L125.028,33.3 L125.028,51.012 L132.948,51.012 Z M129.456,48.132 L128.52,48.132 L128.52,30.744 L123.372,30.744 L123.372,29.88 L134.604,29.88 L134.604,30.744 L129.456,30.744 L129.456,48.132 Z" id="t" fill="#FED766"></path>
            </g>
        </g>
    </g>
</svg>