
<svg width="160px" height="53px" viewBox="0 0 160 53" version="1.1" xmlns="http://www.w3.org/2000/svg" xmlns:xlink="http://www.w3.org/1999/xlink">
    <g id="Page-1" stroke="none" stroke-width="1" fill="none" fill-rule="evenodd">
        <g id="Artboard" transform="translate(-422.000000, -423.000000)" fill-rule="nonzero">
            <g id="nye&gt;&gt;&gt;-casinoer" transform="translate(422.720000, 423.988000)">
                <path d="M8.064,24.012 L8.064,14.796 L14.652,24.012 L20.988,24.012 L20.988,-1.13686838e-13 L13.464,-1.13686838e-13 L13.464,9.252 L6.84,-1.13686838e-13 L0.54,-1.13686838e-13 L0.54,24.012 L8.064,24.012 Z M4.824,21.132 L3.888,21.132 L3.888,2.88 L4.824,2.88 L16.704,19.512 L16.704,2.88 L17.64,2.88 L17.64,21.132 L16.704,21.132 L4.824,4.5 L4.824,21.132 Z M36.648,24.012 L36.648,13.68 L44.1,-1.13686838e-13 L35.568,-1.13686838e-13 L32.832,5.076 L30.06,-1.13686838e-13 L21.528,-1.13686838e-13 L28.98,13.68 L28.98,24.012 L36.648,24.012 Z M33.3,21.132 L32.328,21.132 L32.328,12.528 L27.108,2.88 L28.188,2.88 L32.832,11.412 L37.44,2.88 L38.556,2.88 L33.3,12.528 L33.3,21.132 Z M59.04,24.012 L59.04,17.712 L52.308,17.712 L52.308,14.94 L58.68,14.94 L58.68,8.964 L52.308,8.964 L52.308,6.3 L58.788,6.3 L58.788,-1.13686838e-13 L44.64,-1.13686838e-13 L44.64,24.012 L59.04,24.012 Z M56.376,21.132 L48.24,21.132 L48.24,2.88 L56.376,2.88 L56.376,3.744 L49.176,3.744 L49.176,11.52 L56.016,11.52 L56.016,12.384 L49.176,12.384 L49.176,20.268 L56.376,20.268 L56.376,21.132 Z M60.84,24.012 L75.96,17.892 L75.96,13.428 L60.84,7.308 L60.84,13.284 L66.744,15.66 L60.84,18.036 L60.84,24.012 Z M63,20.484 L63,19.548 L72.684,15.66 L63,11.772 L63,10.836 L73.8,15.228 L73.8,16.092 L63,20.484 Z M77.76,24.012 L92.88,17.892 L92.88,13.428 L77.76,7.308 L77.76,13.284 L83.664,15.66 L77.76,18.036 L77.76,24.012 Z M79.92,20.484 L79.92,19.548 L89.604,15.66 L79.92,11.772 L79.92,10.836 L90.72,15.228 L90.72,16.092 L79.92,20.484 Z M94.68,24.012 L109.8,17.892 L109.8,13.428 L94.68,7.308 L94.68,13.284 L100.584,15.66 L94.68,18.036 L94.68,24.012 Z M96.84,20.484 L96.84,19.548 L106.524,15.66 L96.84,11.772 L96.84,10.836 L107.64,15.228 L107.64,16.092 L96.84,20.484 Z M12.96,51.624 C14.352,51.624 15.588,51.48 16.668,51.192 C17.748,50.904 18.672,50.592 19.44,50.256 C20.328,49.848 21.096,49.38 21.744,48.852 L21.744,48.852 L17.964,42.192 C17.604,42.552 17.184,42.864 16.704,43.128 C16.296,43.368 15.792,43.584 15.192,43.776 C14.592,43.968 13.908,44.064 13.14,44.064 C12.372,44.064 11.664,43.932 11.016,43.668 C10.368,43.404 9.804,43.044 9.324,42.588 C8.844,42.132 8.466,41.598 8.19,40.986 C7.914,40.374 7.776,39.72 7.776,39.024 C7.776,38.328 7.908,37.674 8.172,37.062 C8.436,36.45 8.802,35.916 9.27,35.46 C9.738,35.004 10.284,34.644 10.908,34.38 C11.532,34.116 12.216,33.984 12.96,33.984 C13.68,33.984 14.322,34.074 14.886,34.254 C15.45,34.434 15.936,34.62 16.344,34.812 C16.8,35.076 17.22,35.352 17.604,35.64 L17.604,35.64 L21.384,28.98 C20.736,28.524 19.968,28.104 19.08,27.72 C18.312,27.384 17.394,27.084 16.326,26.82 C15.258,26.556 14.04,26.424 12.672,26.424 C10.944,26.424 9.312,26.718 7.776,27.306 C6.24,27.894 4.896,28.74 3.744,29.844 C2.592,30.948 1.68,32.274 1.008,33.822 C0.336,35.37 0,37.104 0,39.024 C0,40.896 0.324,42.606 0.972,44.154 C1.62,45.702 2.52,47.028 3.672,48.132 C4.824,49.236 6.192,50.094 7.776,50.706 C9.36,51.318 11.088,51.624 12.96,51.624 Z M13.068,48.24 C11.772,48.24 10.548,48.024 9.396,47.592 C8.244,47.16 7.236,46.542 6.372,45.738 C5.508,44.934 4.83,43.968 4.338,42.84 C3.846,41.712 3.6,40.44 3.6,39.024 C3.6,37.632 3.858,36.366 4.374,35.226 C4.89,34.086 5.574,33.114 6.426,32.31 C7.278,31.506 8.262,30.888 9.378,30.456 C10.494,30.024 11.664,29.808 12.888,29.808 C13.584,29.808 14.196,29.856 14.724,29.952 C15.252,30.048 15.72,30.156 16.128,30.276 C16.56,30.42 16.968,30.576 17.352,30.744 L17.352,30.744 L16.848,31.608 C16.56,31.44 16.212,31.296 15.804,31.176 C15.468,31.056 15.054,30.954 14.562,30.87 C14.07,30.786 13.512,30.744 12.888,30.744 C11.616,30.744 10.464,30.96 9.432,31.392 C8.4,31.824 7.524,32.412 6.804,33.156 C6.084,33.9 5.526,34.776 5.13,35.784 C4.734,36.792 4.536,37.872 4.536,39.024 C4.536,40.176 4.734,41.256 5.13,42.264 C5.526,43.272 6.09,44.148 6.822,44.892 C7.554,45.636 8.448,46.224 9.504,46.656 C10.56,47.088 11.748,47.304 13.068,47.304 C13.74,47.304 14.328,47.25 14.832,47.142 C15.336,47.034 15.768,46.908 16.128,46.764 C16.536,46.62 16.896,46.44 17.208,46.224 L17.208,46.224 L17.712,47.088 C17.352,47.304 16.944,47.496 16.488,47.664 C16.08,47.808 15.588,47.94 15.012,48.06 C14.436,48.18 13.788,48.24 13.068,48.24 Z M28.224,51.012 L29.016,48.852 L36.288,48.852 L37.08,51.012 L44.64,51.012 L35.532,27 L29.772,27 L20.664,51.012 L28.224,51.012 Z M26.028,48.132 L25.02,48.132 L31.968,29.88 L33.336,29.88 L40.284,48.132 L39.276,48.132 L38.592,46.332 L26.712,46.332 L26.028,48.132 Z M38.268,45.468 L32.652,30.744 L27.036,45.468 L38.268,45.468 Z M34.272,43.56 L31.032,43.56 L32.652,39.348 L34.272,43.56 Z M51.048,51.624 C52.56,51.624 53.868,51.426 54.972,51.03 C56.076,50.634 56.982,50.094 57.69,49.41 C58.398,48.726 58.92,47.922 59.256,46.998 C59.592,46.074 59.76,45.084 59.76,44.028 C59.76,43.02 59.598,42.108 59.274,41.292 C58.95,40.476 58.554,39.744 58.086,39.096 C57.618,38.448 57.102,37.872 56.538,37.368 C55.974,36.864 55.458,36.42 54.99,36.036 C54.522,35.652 54.126,35.316 53.802,35.028 C53.478,34.74 53.316,34.5 53.316,34.308 C53.316,34.092 53.388,33.924 53.532,33.804 C53.676,33.684 53.844,33.6 54.036,33.552 C54.228,33.504 54.432,33.474 54.648,33.462 C54.864,33.45 55.044,33.444 55.188,33.444 C55.452,33.444 55.704,33.456 55.944,33.48 C56.184,33.504 56.4,33.528 56.592,33.552 C56.832,33.576 57.048,33.6 57.24,33.624 L57.24,33.624 L57.24,26.892 C56.736,26.82 56.22,26.748 55.692,26.676 C55.236,26.628 54.72,26.574 54.144,26.514 C53.568,26.454 52.992,26.424 52.416,26.424 C51.312,26.424 50.274,26.574 49.302,26.874 C48.33,27.174 47.484,27.612 46.764,28.188 C46.044,28.764 45.48,29.484 45.072,30.348 C44.664,31.212 44.46,32.208 44.46,33.336 C44.46,34.344 44.628,35.238 44.964,36.018 C45.3,36.798 45.726,37.5 46.242,38.124 C46.758,38.748 47.31,39.3 47.898,39.78 C48.486,40.26 49.038,40.698 49.554,41.094 C50.07,41.49 50.496,41.85 50.832,42.174 C51.168,42.498 51.336,42.816 51.336,43.128 C51.336,43.944 50.784,44.352 49.68,44.352 C49.056,44.352 48.438,44.316 47.826,44.244 C47.214,44.172 46.668,44.076 46.188,43.956 C45.612,43.86 45.06,43.728 44.532,43.56 L44.532,43.56 L44.532,50.76 C45.108,50.928 45.744,51.072 46.44,51.192 C47.04,51.312 47.73,51.414 48.51,51.498 C49.29,51.582 50.136,51.624 51.048,51.624 Z M50.832,48.24 C50.448,48.24 50.07,48.222 49.698,48.186 C49.326,48.15 48.972,48.108 48.636,48.06 C48.252,48.012 47.892,47.952 47.556,47.88 L47.556,47.88 L47.556,46.944 C47.892,47.016 48.24,47.076 48.6,47.124 C49.272,47.244 50.016,47.304 50.832,47.304 C52.2,47.304 53.274,47.004 54.054,46.404 C54.834,45.804 55.224,44.928 55.224,43.776 C55.224,43.152 55.05,42.552 54.702,41.976 C54.354,41.4 53.91,40.842 53.37,40.302 C52.83,39.762 52.254,39.228 51.642,38.7 C51.03,38.172 50.454,37.626 49.914,37.062 C49.374,36.498 48.93,35.922 48.582,35.334 C48.234,34.746 48.06,34.116 48.06,33.444 C48.06,32.196 48.48,31.278 49.32,30.69 C50.16,30.102 51.228,29.808 52.524,29.808 C52.74,29.808 52.95,29.814 53.154,29.826 C53.358,29.838 53.544,29.856 53.712,29.88 C53.904,29.904 54.084,29.916 54.252,29.916 L54.252,29.916 L54.252,30.852 C54.06,30.852 53.868,30.84 53.676,30.816 C53.484,30.792 53.286,30.774 53.082,30.762 C52.878,30.75 52.68,30.744 52.488,30.744 C51.264,30.744 50.376,30.978 49.824,31.446 C49.272,31.914 48.996,32.58 48.996,33.444 C48.996,34.02 49.17,34.578 49.518,35.118 C49.866,35.658 50.31,36.198 50.85,36.738 C51.39,37.278 51.966,37.812 52.578,38.34 C53.19,38.868 53.766,39.42 54.306,39.996 C54.846,40.572 55.29,41.172 55.638,41.796 C55.986,42.42 56.16,43.08 56.16,43.776 C56.16,44.592 56.01,45.282 55.71,45.846 C55.41,46.41 55.008,46.872 54.504,47.232 C54,47.592 53.43,47.85 52.794,48.006 C52.158,48.162 51.504,48.24 50.832,48.24 Z M69.516,51.012 L69.516,27 L61.38,27 L61.38,51.012 L69.516,51.012 Z M65.916,48.132 L64.98,48.132 L64.98,29.88 L65.916,29.88 L65.916,48.132 Z M79.56,51.012 L79.56,41.796 L86.148,51.012 L92.484,51.012 L92.484,27 L84.96,27 L84.96,36.252 L78.336,27 L72.036,27 L72.036,51.012 L79.56,51.012 Z M76.32,48.132 L75.384,48.132 L75.384,29.88 L76.32,29.88 L88.2,46.512 L88.2,29.88 L89.136,29.88 L89.136,48.132 L88.2,48.132 L76.32,31.5 L76.32,48.132 Z" id="nye&gt;&gt;&gt;casin" fill="#FED766"></path>
                <path d="M107.064,51.624 C108.792,51.624 110.424,51.294 111.96,50.634 C113.496,49.974 114.834,49.074 115.974,47.934 C117.114,46.794 118.014,45.456 118.674,43.92 C119.334,42.384 119.664,40.752 119.664,39.024 C119.664,37.296 119.334,35.664 118.674,34.128 C118.014,32.592 117.114,31.254 115.974,30.114 C114.834,28.974 113.496,28.074 111.96,27.414 C110.424,26.754 108.792,26.424 107.064,26.424 C105.336,26.424 103.704,26.754 102.168,27.414 C100.632,28.074 99.294,28.974 98.154,30.114 C97.014,31.254 96.114,32.592 95.454,34.128 C94.794,35.664 94.464,37.296 94.464,39.024 C94.464,40.752 94.794,42.384 95.454,43.92 C96.114,45.456 97.014,46.794 98.154,47.934 C99.294,49.074 100.632,49.974 102.168,50.634 C103.704,51.294 105.336,51.624 107.064,51.624 Z M107.064,48.24 C105.792,48.24 104.598,48 103.482,47.52 C102.366,47.04 101.388,46.38 100.548,45.54 C99.708,44.7 99.048,43.722 98.568,42.606 C98.088,41.49 97.848,40.296 97.848,39.024 C97.848,37.752 98.088,36.558 98.568,35.442 C99.048,34.326 99.708,33.348 100.548,32.508 C101.388,31.668 102.366,31.008 103.482,30.528 C104.598,30.048 105.792,29.808 107.064,29.808 C108.336,29.808 109.53,30.048 110.646,30.528 C111.762,31.008 112.74,31.668 113.58,32.508 C114.42,33.348 115.08,34.326 115.56,35.442 C116.04,36.558 116.28,37.752 116.28,39.024 C116.28,40.296 116.04,41.49 115.56,42.606 C115.08,43.722 114.42,44.7 113.58,45.54 C112.74,46.38 111.762,47.04 110.646,47.52 C109.53,48 108.336,48.24 107.064,48.24 Z M107.064,47.304 C108.216,47.304 109.29,47.088 110.286,46.656 C111.282,46.224 112.158,45.63 112.914,44.874 C113.67,44.118 114.264,43.242 114.696,42.246 C115.128,41.25 115.344,40.176 115.344,39.024 C115.344,37.872 115.128,36.798 114.696,35.802 C114.264,34.806 113.67,33.93 112.914,33.174 C112.158,32.418 111.282,31.824 110.286,31.392 C109.29,30.96 108.216,30.744 107.064,30.744 C105.912,30.744 104.838,30.96 103.842,31.392 C102.846,31.824 101.97,32.418 101.214,33.174 C100.458,33.93 99.864,34.806 99.432,35.802 C99,36.798 98.784,37.872 98.784,39.024 C98.784,40.176 99,41.25 99.432,42.246 C99.864,43.242 100.458,44.118 101.214,44.874 C101.97,45.63 102.846,46.224 103.842,46.656 C104.838,47.088 105.912,47.304 107.064,47.304 Z M107.064,44.064 C106.368,44.064 105.714,43.932 105.102,43.668 C104.49,43.404 103.956,43.044 103.5,42.588 C103.044,42.132 102.684,41.598 102.42,40.986 C102.156,40.374 102.024,39.72 102.024,39.024 C102.024,38.328 102.156,37.674 102.42,37.062 C102.684,36.45 103.044,35.916 103.5,35.46 C103.956,35.004 104.49,34.644 105.102,34.38 C105.714,34.116 106.368,33.984 107.064,33.984 C107.76,33.984 108.414,34.116 109.026,34.38 C109.638,34.644 110.172,35.004 110.628,35.46 C111.084,35.916 111.444,36.45 111.708,37.062 C111.972,37.674 112.104,38.328 112.104,39.024 C112.104,39.72 111.972,40.374 111.708,40.986 C111.444,41.598 111.084,42.132 110.628,42.588 C110.172,43.044 109.638,43.404 109.026,43.668 C108.414,43.932 107.76,44.064 107.064,44.064 Z" id="o" fill="#FFFFFF"></path>
                <path d="M136.044,51.012 L136.044,44.712 L129.312,44.712 L129.312,41.94 L135.684,41.94 L135.684,35.964 L129.312,35.964 L129.312,33.3 L135.792,33.3 L135.792,27 L121.644,27 L121.644,51.012 L136.044,51.012 Z M133.38,48.132 L125.244,48.132 L125.244,29.88 L133.38,29.88 L133.38,30.744 L126.18,30.744 L126.18,38.52 L133.02,38.52 L133.02,39.384 L126.18,39.384 L126.18,47.268 L133.38,47.268 L133.38,48.132 Z M145.872,51.012 L145.872,44.928 L149.472,51.012 L158.472,51.012 L153.972,43.092 C154.572,42.66 155.112,42.132 155.592,41.508 C156,40.956 156.372,40.26 156.708,39.42 C157.044,38.58 157.212,37.56 157.212,36.36 C157.212,34.848 156.942,33.51 156.402,32.346 C155.862,31.182 155.112,30.204 154.152,29.412 C153.192,28.62 152.058,28.02 150.75,27.612 C149.442,27.204 148.02,27 146.484,27 L146.484,27 L138.204,27 L138.204,51.012 L145.872,51.012 Z M142.74,48.132 L141.804,48.132 L141.804,29.88 L145.692,29.88 C146.82,29.88 147.864,30.018 148.824,30.294 C149.784,30.57 150.618,30.978 151.326,31.518 C152.034,32.058 152.592,32.724 153,33.516 C153.408,34.308 153.612,35.232 153.612,36.288 C153.612,37.8 153.228,39.03 152.46,39.978 C151.692,40.926 150.66,41.628 149.364,42.084 L149.364,42.084 L152.964,48.132 L151.848,48.132 L148.428,42.372 C147.54,42.564 146.628,42.66 145.692,42.66 L145.692,42.66 L142.74,42.66 L142.74,48.132 Z M145.692,41.796 C147.876,41.796 149.586,41.322 150.822,40.374 C152.058,39.426 152.676,38.064 152.676,36.288 C152.676,34.512 152.058,33.144 150.822,32.184 C149.586,31.224 147.876,30.744 145.692,30.744 L145.692,30.744 L142.74,30.744 L142.74,41.796 L145.692,41.796 Z M146.268,38.808 L145.872,38.808 L145.872,33.48 L146.268,33.48 C147.18,33.48 147.954,33.684 148.59,34.092 C149.226,34.5 149.544,35.184 149.544,36.144 C149.544,37.104 149.226,37.788 148.59,38.196 C147.954,38.604 147.18,38.808 146.268,38.808 L146.268,38.808 Z" id="er" fill="#FED766"></path>
            </g>
        </g>
    </g>
</svg>