
<svg width="160px" height="53px" viewBox="0 0 160 53" version="1.1" xmlns="http://www.w3.org/2000/svg" xmlns:xlink="http://www.w3.org/1999/xlink">
    <g id="Page-1" stroke="none" stroke-width="1" fill="none" fill-rule="evenodd">
        <g id="Artboard" transform="translate(-421.000000, -13.000000)" fill-rule="nonzero">
            <g id="online&gt;&gt;-kasinoeR" transform="translate(421.720000, 13.412000)">
                <path d="M12.6,25.2 C14.328,25.2 15.96,24.87 17.496,24.21 C19.032,23.55 20.37,22.65 21.51,21.51 C22.65,20.37 23.55,19.032 24.21,17.496 C24.87,15.96 25.2,14.328 25.2,12.6 C25.2,10.872 24.87,9.24 24.21,7.704 C23.55,6.168 22.65,4.83 21.51,3.69 C20.37,2.55 19.032,1.65 17.496,0.99 C15.96,0.33 14.328,-8.52651283e-14 12.6,-8.52651283e-14 C10.872,-8.52651283e-14 9.24,0.33 7.704,0.99 C6.168,1.65 4.83,2.55 3.69,3.69 C2.55,4.83 1.65,6.168 0.99,7.704 C0.33,9.24 -5.68434189e-14,10.872 -5.68434189e-14,12.6 C-5.68434189e-14,14.328 0.33,15.96 0.99,17.496 C1.65,19.032 2.55,20.37 3.69,21.51 C4.83,22.65 6.168,23.55 7.704,24.21 C9.24,24.87 10.872,25.2 12.6,25.2 Z M12.6,21.816 C11.328,21.816 10.134,21.576 9.018,21.096 C7.902,20.616 6.924,19.956 6.084,19.116 C5.244,18.276 4.584,17.298 4.104,16.182 C3.624,15.066 3.384,13.872 3.384,12.6 C3.384,11.328 3.624,10.134 4.104,9.018 C4.584,7.902 5.244,6.924 6.084,6.084 C6.924,5.244 7.902,4.584 9.018,4.104 C10.134,3.624 11.328,3.384 12.6,3.384 C13.872,3.384 15.066,3.624 16.182,4.104 C17.298,4.584 18.276,5.244 19.116,6.084 C19.956,6.924 20.616,7.902 21.096,9.018 C21.576,10.134 21.816,11.328 21.816,12.6 C21.816,13.872 21.576,15.066 21.096,16.182 C20.616,17.298 19.956,18.276 19.116,19.116 C18.276,19.956 17.298,20.616 16.182,21.096 C15.066,21.576 13.872,21.816 12.6,21.816 Z M12.6,20.88 C13.752,20.88 14.826,20.664 15.822,20.232 C16.818,19.8 17.694,19.206 18.45,18.45 C19.206,17.694 19.8,16.818 20.232,15.822 C20.664,14.826 20.88,13.752 20.88,12.6 C20.88,11.448 20.664,10.374 20.232,9.378 C19.8,8.382 19.206,7.506 18.45,6.75 C17.694,5.994 16.818,5.4 15.822,4.968 C14.826,4.536 13.752,4.32 12.6,4.32 C11.448,4.32 10.374,4.536 9.378,4.968 C8.382,5.4 7.506,5.994 6.75,6.75 C5.994,7.506 5.4,8.382 4.968,9.378 C4.536,10.374 4.32,11.448 4.32,12.6 C4.32,13.752 4.536,14.826 4.968,15.822 C5.4,16.818 5.994,17.694 6.75,18.45 C7.506,19.206 8.382,19.8 9.378,20.232 C10.374,20.664 11.448,20.88 12.6,20.88 Z M12.6,17.64 C11.904,17.64 11.25,17.508 10.638,17.244 C10.026,16.98 9.492,16.62 9.036,16.164 C8.58,15.708 8.22,15.174 7.956,14.562 C7.692,13.95 7.56,13.296 7.56,12.6 C7.56,11.904 7.692,11.25 7.956,10.638 C8.22,10.026 8.58,9.492 9.036,9.036 C9.492,8.58 10.026,8.22 10.638,7.956 C11.25,7.692 11.904,7.56 12.6,7.56 C13.296,7.56 13.95,7.692 14.562,7.956 C15.174,8.22 15.708,8.58 16.164,9.036 C16.62,9.492 16.98,10.026 17.244,10.638 C17.508,11.25 17.64,11.904 17.64,12.6 C17.64,13.296 17.508,13.95 17.244,14.562 C16.98,15.174 16.62,15.708 16.164,16.164 C15.708,16.62 15.174,16.98 14.562,17.244 C13.95,17.508 13.296,17.64 12.6,17.64 Z M34.704,24.588 L34.704,15.372 L41.292,24.588 L47.628,24.588 L47.628,0.576 L40.104,0.576 L40.104,9.828 L33.48,0.576 L27.18,0.576 L27.18,24.588 L34.704,24.588 Z M31.464,21.708 L30.528,21.708 L30.528,3.456 L31.464,3.456 L43.344,20.088 L43.344,3.456 L44.28,3.456 L44.28,21.708 L43.344,21.708 L31.464,5.076 L31.464,21.708 Z M64.764,24.588 L64.764,18.288 L58.14,18.288 L58.14,0.576 L50.148,0.576 L50.148,24.588 L64.764,24.588 Z M62.748,21.708 L53.748,21.708 L53.748,3.456 L54.684,3.456 L54.684,20.844 L62.748,20.844 L62.748,21.708 Z M74.16,24.588 L74.16,0.576 L66.024,0.576 L66.024,24.588 L74.16,24.588 Z M70.56,21.708 L69.624,21.708 L69.624,3.456 L70.56,3.456 L70.56,21.708 Z M84.204,24.588 L84.204,15.372 L90.792,24.588 L97.128,24.588 L97.128,0.576 L89.604,0.576 L89.604,9.828 L82.98,0.576 L76.68,0.576 L76.68,24.588 L84.204,24.588 Z M80.964,21.708 L80.028,21.708 L80.028,3.456 L80.964,3.456 L92.844,20.088 L92.844,3.456 L93.78,3.456 L93.78,21.708 L92.844,21.708 L80.964,5.076 L80.964,21.708 Z M114.048,24.588 L114.048,18.288 L107.316,18.288 L107.316,15.516 L113.688,15.516 L113.688,9.54 L107.316,9.54 L107.316,6.876 L113.796,6.876 L113.796,0.576 L99.648,0.576 L99.648,24.588 L114.048,24.588 Z M111.384,21.708 L103.248,21.708 L103.248,3.456 L111.384,3.456 L111.384,4.32 L104.184,4.32 L104.184,12.096 L111.024,12.096 L111.024,12.96 L104.184,12.96 L104.184,20.844 L111.384,20.844 L111.384,21.708 Z M115.848,24.588 L130.968,18.468 L130.968,14.004 L115.848,7.884 L115.848,13.86 L121.752,16.236 L115.848,18.612 L115.848,24.588 Z M118.008,21.06 L118.008,20.124 L127.692,16.236 L118.008,12.348 L118.008,11.412 L128.808,15.804 L128.808,16.668 L118.008,21.06 Z M132.768,24.588 L147.888,18.468 L147.888,14.004 L132.768,7.884 L132.768,13.86 L138.672,16.236 L132.768,18.612 L132.768,24.588 Z M134.928,21.06 L134.928,20.124 L144.612,16.236 L134.928,12.348 L134.928,11.412 L145.728,15.804 L145.728,16.668 L134.928,21.06 Z M8.316,51.588 L8.316,44.172 L13.428,51.588 L22.68,51.588 L13.788,38.556 L22.248,27.576 L12.852,27.576 L8.316,33.12 L8.316,27.576 L0.54,27.576 L0.54,51.588 L8.316,51.588 Z M5.076,48.708 L4.14,48.708 L4.14,30.456 L5.076,30.456 L5.076,42.408 L14.76,30.456 L15.912,30.456 L9.468,38.448 L16.488,48.708 L15.372,48.708 L8.82,39.204 L5.076,43.848 L5.076,48.708 Z M28.98,51.588 L29.772,49.428 L37.044,49.428 L37.836,51.588 L45.396,51.588 L36.288,27.576 L30.528,27.576 L21.42,51.588 L28.98,51.588 Z M26.784,48.708 L25.776,48.708 L32.724,30.456 L34.092,30.456 L41.04,48.708 L40.032,48.708 L39.348,46.908 L27.468,46.908 L26.784,48.708 Z M39.024,46.044 L33.408,31.32 L27.792,46.044 L39.024,46.044 Z M35.028,44.136 L31.788,44.136 L33.408,39.924 L35.028,44.136 Z M51.804,52.2 C53.316,52.2 54.624,52.002 55.728,51.606 C56.832,51.21 57.738,50.67 58.446,49.986 C59.154,49.302 59.676,48.498 60.012,47.574 C60.348,46.65 60.516,45.66 60.516,44.604 C60.516,43.596 60.354,42.684 60.03,41.868 C59.706,41.052 59.31,40.32 58.842,39.672 C58.374,39.024 57.858,38.448 57.294,37.944 C56.73,37.44 56.214,36.996 55.746,36.612 C55.278,36.228 54.882,35.892 54.558,35.604 C54.234,35.316 54.072,35.076 54.072,34.884 C54.072,34.668 54.144,34.5 54.288,34.38 C54.432,34.26 54.6,34.176 54.792,34.128 C54.984,34.08 55.188,34.05 55.404,34.038 C55.62,34.026 55.8,34.02 55.944,34.02 C56.208,34.02 56.46,34.032 56.7,34.056 C56.94,34.08 57.156,34.104 57.348,34.128 C57.588,34.152 57.804,34.176 57.996,34.2 L57.996,34.2 L57.996,27.468 C57.492,27.396 56.976,27.324 56.448,27.252 C55.992,27.204 55.476,27.15 54.9,27.09 C54.324,27.03 53.748,27 53.172,27 C52.068,27 51.03,27.15 50.058,27.45 C49.086,27.75 48.24,28.188 47.52,28.764 C46.8,29.34 46.236,30.06 45.828,30.924 C45.42,31.788 45.216,32.784 45.216,33.912 C45.216,34.92 45.384,35.814 45.72,36.594 C46.056,37.374 46.482,38.076 46.998,38.7 C47.514,39.324 48.066,39.876 48.654,40.356 C49.242,40.836 49.794,41.274 50.31,41.67 C50.826,42.066 51.252,42.426 51.588,42.75 C51.924,43.074 52.092,43.392 52.092,43.704 C52.092,44.52 51.54,44.928 50.436,44.928 C49.812,44.928 49.194,44.892 48.582,44.82 C47.97,44.748 47.424,44.652 46.944,44.532 C46.368,44.436 45.816,44.304 45.288,44.136 L45.288,44.136 L45.288,51.336 C45.864,51.504 46.5,51.648 47.196,51.768 C47.796,51.888 48.486,51.99 49.266,52.074 C50.046,52.158 50.892,52.2 51.804,52.2 Z M51.588,48.816 C51.204,48.816 50.826,48.798 50.454,48.762 C50.082,48.726 49.728,48.684 49.392,48.636 C49.008,48.588 48.648,48.528 48.312,48.456 L48.312,48.456 L48.312,47.52 C48.648,47.592 48.996,47.652 49.356,47.7 C50.028,47.82 50.772,47.88 51.588,47.88 C52.956,47.88 54.03,47.58 54.81,46.98 C55.59,46.38 55.98,45.504 55.98,44.352 C55.98,43.728 55.806,43.128 55.458,42.552 C55.11,41.976 54.666,41.418 54.126,40.878 C53.586,40.338 53.01,39.804 52.398,39.276 C51.786,38.748 51.21,38.202 50.67,37.638 C50.13,37.074 49.686,36.498 49.338,35.91 C48.99,35.322 48.816,34.692 48.816,34.02 C48.816,32.772 49.236,31.854 50.076,31.266 C50.916,30.678 51.984,30.384 53.28,30.384 C53.496,30.384 53.706,30.39 53.91,30.402 C54.114,30.414 54.3,30.432 54.468,30.456 C54.66,30.48 54.84,30.492 55.008,30.492 L55.008,30.492 L55.008,31.428 C54.816,31.428 54.624,31.416 54.432,31.392 C54.24,31.368 54.042,31.35 53.838,31.338 C53.634,31.326 53.436,31.32 53.244,31.32 C52.02,31.32 51.132,31.554 50.58,32.022 C50.028,32.49 49.752,33.156 49.752,34.02 C49.752,34.596 49.926,35.154 50.274,35.694 C50.622,36.234 51.066,36.774 51.606,37.314 C52.146,37.854 52.722,38.388 53.334,38.916 C53.946,39.444 54.522,39.996 55.062,40.572 C55.602,41.148 56.046,41.748 56.394,42.372 C56.742,42.996 56.916,43.656 56.916,44.352 C56.916,45.168 56.766,45.858 56.466,46.422 C56.166,46.986 55.764,47.448 55.26,47.808 C54.756,48.168 54.186,48.426 53.55,48.582 C52.914,48.738 52.26,48.816 51.588,48.816 Z M70.272,51.588 L70.272,27.576 L62.136,27.576 L62.136,51.588 L70.272,51.588 Z M66.672,48.708 L65.736,48.708 L65.736,30.456 L66.672,30.456 L66.672,48.708 Z M80.316,51.588 L80.316,42.372 L86.904,51.588 L93.24,51.588 L93.24,27.576 L85.716,27.576 L85.716,36.828 L79.092,27.576 L72.792,27.576 L72.792,51.588 L80.316,51.588 Z M77.076,48.708 L76.14,48.708 L76.14,30.456 L77.076,30.456 L88.956,47.088 L88.956,30.456 L89.892,30.456 L89.892,48.708 L88.956,48.708 L77.076,32.076 L77.076,48.708 Z" id="online&gt;&gt;kasin" fill="#FED766"></path>
                <path d="M107.82,52.2 C109.548,52.2 111.18,51.87 112.716,51.21 C114.252,50.55 115.59,49.65 116.73,48.51 C117.87,47.37 118.77,46.032 119.43,44.496 C120.09,42.96 120.42,41.328 120.42,39.6 C120.42,37.872 120.09,36.24 119.43,34.704 C118.77,33.168 117.87,31.83 116.73,30.69 C115.59,29.55 114.252,28.65 112.716,27.99 C111.18,27.33 109.548,27 107.82,27 C106.092,27 104.46,27.33 102.924,27.99 C101.388,28.65 100.05,29.55 98.91,30.69 C97.77,31.83 96.87,33.168 96.21,34.704 C95.55,36.24 95.22,37.872 95.22,39.6 C95.22,41.328 95.55,42.96 96.21,44.496 C96.87,46.032 97.77,47.37 98.91,48.51 C100.05,49.65 101.388,50.55 102.924,51.21 C104.46,51.87 106.092,52.2 107.82,52.2 Z M107.82,48.816 C106.548,48.816 105.354,48.576 104.238,48.096 C103.122,47.616 102.144,46.956 101.304,46.116 C100.464,45.276 99.804,44.298 99.324,43.182 C98.844,42.066 98.604,40.872 98.604,39.6 C98.604,38.328 98.844,37.134 99.324,36.018 C99.804,34.902 100.464,33.924 101.304,33.084 C102.144,32.244 103.122,31.584 104.238,31.104 C105.354,30.624 106.548,30.384 107.82,30.384 C109.092,30.384 110.286,30.624 111.402,31.104 C112.518,31.584 113.496,32.244 114.336,33.084 C115.176,33.924 115.836,34.902 116.316,36.018 C116.796,37.134 117.036,38.328 117.036,39.6 C117.036,40.872 116.796,42.066 116.316,43.182 C115.836,44.298 115.176,45.276 114.336,46.116 C113.496,46.956 112.518,47.616 111.402,48.096 C110.286,48.576 109.092,48.816 107.82,48.816 Z M107.82,47.88 C108.972,47.88 110.046,47.664 111.042,47.232 C112.038,46.8 112.914,46.206 113.67,45.45 C114.426,44.694 115.02,43.818 115.452,42.822 C115.884,41.826 116.1,40.752 116.1,39.6 C116.1,38.448 115.884,37.374 115.452,36.378 C115.02,35.382 114.426,34.506 113.67,33.75 C112.914,32.994 112.038,32.4 111.042,31.968 C110.046,31.536 108.972,31.32 107.82,31.32 C106.668,31.32 105.594,31.536 104.598,31.968 C103.602,32.4 102.726,32.994 101.97,33.75 C101.214,34.506 100.62,35.382 100.188,36.378 C99.756,37.374 99.54,38.448 99.54,39.6 C99.54,40.752 99.756,41.826 100.188,42.822 C100.62,43.818 101.214,44.694 101.97,45.45 C102.726,46.206 103.602,46.8 104.598,47.232 C105.594,47.664 106.668,47.88 107.82,47.88 Z M107.82,44.64 C107.124,44.64 106.47,44.508 105.858,44.244 C105.246,43.98 104.712,43.62 104.256,43.164 C103.8,42.708 103.44,42.174 103.176,41.562 C102.912,40.95 102.78,40.296 102.78,39.6 C102.78,38.904 102.912,38.25 103.176,37.638 C103.44,37.026 103.8,36.492 104.256,36.036 C104.712,35.58 105.246,35.22 105.858,34.956 C106.47,34.692 107.124,34.56 107.82,34.56 C108.516,34.56 109.17,34.692 109.782,34.956 C110.394,35.22 110.928,35.58 111.384,36.036 C111.84,36.492 112.2,37.026 112.464,37.638 C112.728,38.25 112.86,38.904 112.86,39.6 C112.86,40.296 112.728,40.95 112.464,41.562 C112.2,42.174 111.84,42.708 111.384,43.164 C110.928,43.62 110.394,43.98 109.782,44.244 C109.17,44.508 108.516,44.64 107.82,44.64 Z" id="o" fill="#FFFFFF"></path>
                <path d="M136.8,51.588 L136.8,45.288 L130.068,45.288 L130.068,42.516 L136.44,42.516 L136.44,36.54 L130.068,36.54 L130.068,33.876 L136.548,33.876 L136.548,27.576 L122.4,27.576 L122.4,51.588 L136.8,51.588 Z M134.136,48.708 L126,48.708 L126,30.456 L134.136,30.456 L134.136,31.32 L126.936,31.32 L126.936,39.096 L133.776,39.096 L133.776,39.96 L126.936,39.96 L126.936,47.844 L134.136,47.844 L134.136,48.708 Z M146.628,51.588 L146.628,45.504 L150.228,51.588 L159.228,51.588 L154.728,43.668 C155.328,43.236 155.868,42.708 156.348,42.084 C156.756,41.532 157.128,40.836 157.464,39.996 C157.8,39.156 157.968,38.136 157.968,36.936 C157.968,35.424 157.698,34.086 157.158,32.922 C156.618,31.758 155.868,30.78 154.908,29.988 C153.948,29.196 152.814,28.596 151.506,28.188 C150.198,27.78 148.776,27.576 147.24,27.576 L147.24,27.576 L138.96,27.576 L138.96,51.588 L146.628,51.588 Z M143.496,48.708 L142.56,48.708 L142.56,30.456 L146.448,30.456 C147.576,30.456 148.62,30.594 149.58,30.87 C150.54,31.146 151.374,31.554 152.082,32.094 C152.79,32.634 153.348,33.3 153.756,34.092 C154.164,34.884 154.368,35.808 154.368,36.864 C154.368,38.376 153.984,39.606 153.216,40.554 C152.448,41.502 151.416,42.204 150.12,42.66 L150.12,42.66 L153.72,48.708 L152.604,48.708 L149.184,42.948 C148.296,43.14 147.384,43.236 146.448,43.236 L146.448,43.236 L143.496,43.236 L143.496,48.708 Z M146.448,42.372 C148.632,42.372 150.342,41.898 151.578,40.95 C152.814,40.002 153.432,38.64 153.432,36.864 C153.432,35.088 152.814,33.72 151.578,32.76 C150.342,31.8 148.632,31.32 146.448,31.32 L146.448,31.32 L143.496,31.32 L143.496,42.372 L146.448,42.372 Z M147.024,39.384 L146.628,39.384 L146.628,34.056 L147.024,34.056 C147.936,34.056 148.71,34.26 149.346,34.668 C149.982,35.076 150.3,35.76 150.3,36.72 C150.3,37.68 149.982,38.364 149.346,38.772 C148.71,39.18 147.936,39.384 147.024,39.384 L147.024,39.384 Z" id="eR" fill="#FED766"></path>
            </g>
        </g>
    </g>
</svg>