
<svg width="160px" height="53px" viewBox="0 0 160 53" version="1.1" xmlns="http://www.w3.org/2000/svg" xmlns:xlink="http://www.w3.org/1999/xlink">
    <g id="Page-1" stroke="none" stroke-width="1" fill="none" fill-rule="evenodd">
        <g id="Artboard" transform="translate(-419.000000, -144.000000)" fill-rule="nonzero">
            <g id="online&gt;&gt;-casinoer" transform="translate(419.720000, 144.412000)">
                <path d="M12.6,25.2 C14.328,25.2 15.96,24.87 17.496,24.21 C19.032,23.55 20.37,22.65 21.51,21.51 C22.65,20.37 23.55,19.032 24.21,17.496 C24.87,15.96 25.2,14.328 25.2,12.6 C25.2,10.872 24.87,9.24 24.21,7.704 C23.55,6.168 22.65,4.83 21.51,3.69 C20.37,2.55 19.032,1.65 17.496,0.99 C15.96,0.33 14.328,-8.52651283e-14 12.6,-8.52651283e-14 C10.872,-8.52651283e-14 9.24,0.33 7.704,0.99 C6.168,1.65 4.83,2.55 3.69,3.69 C2.55,4.83 1.65,6.168 0.99,7.704 C0.33,9.24 -5.68434189e-14,10.872 -5.68434189e-14,12.6 C-5.68434189e-14,14.328 0.33,15.96 0.99,17.496 C1.65,19.032 2.55,20.37 3.69,21.51 C4.83,22.65 6.168,23.55 7.704,24.21 C9.24,24.87 10.872,25.2 12.6,25.2 Z M12.6,21.816 C11.328,21.816 10.134,21.576 9.018,21.096 C7.902,20.616 6.924,19.956 6.084,19.116 C5.244,18.276 4.584,17.298 4.104,16.182 C3.624,15.066 3.384,13.872 3.384,12.6 C3.384,11.328 3.624,10.134 4.104,9.018 C4.584,7.902 5.244,6.924 6.084,6.084 C6.924,5.244 7.902,4.584 9.018,4.104 C10.134,3.624 11.328,3.384 12.6,3.384 C13.872,3.384 15.066,3.624 16.182,4.104 C17.298,4.584 18.276,5.244 19.116,6.084 C19.956,6.924 20.616,7.902 21.096,9.018 C21.576,10.134 21.816,11.328 21.816,12.6 C21.816,13.872 21.576,15.066 21.096,16.182 C20.616,17.298 19.956,18.276 19.116,19.116 C18.276,19.956 17.298,20.616 16.182,21.096 C15.066,21.576 13.872,21.816 12.6,21.816 Z M12.6,20.88 C13.752,20.88 14.826,20.664 15.822,20.232 C16.818,19.8 17.694,19.206 18.45,18.45 C19.206,17.694 19.8,16.818 20.232,15.822 C20.664,14.826 20.88,13.752 20.88,12.6 C20.88,11.448 20.664,10.374 20.232,9.378 C19.8,8.382 19.206,7.506 18.45,6.75 C17.694,5.994 16.818,5.4 15.822,4.968 C14.826,4.536 13.752,4.32 12.6,4.32 C11.448,4.32 10.374,4.536 9.378,4.968 C8.382,5.4 7.506,5.994 6.75,6.75 C5.994,7.506 5.4,8.382 4.968,9.378 C4.536,10.374 4.32,11.448 4.32,12.6 C4.32,13.752 4.536,14.826 4.968,15.822 C5.4,16.818 5.994,17.694 6.75,18.45 C7.506,19.206 8.382,19.8 9.378,20.232 C10.374,20.664 11.448,20.88 12.6,20.88 Z M12.6,17.64 C11.904,17.64 11.25,17.508 10.638,17.244 C10.026,16.98 9.492,16.62 9.036,16.164 C8.58,15.708 8.22,15.174 7.956,14.562 C7.692,13.95 7.56,13.296 7.56,12.6 C7.56,11.904 7.692,11.25 7.956,10.638 C8.22,10.026 8.58,9.492 9.036,9.036 C9.492,8.58 10.026,8.22 10.638,7.956 C11.25,7.692 11.904,7.56 12.6,7.56 C13.296,7.56 13.95,7.692 14.562,7.956 C15.174,8.22 15.708,8.58 16.164,9.036 C16.62,9.492 16.98,10.026 17.244,10.638 C17.508,11.25 17.64,11.904 17.64,12.6 C17.64,13.296 17.508,13.95 17.244,14.562 C16.98,15.174 16.62,15.708 16.164,16.164 C15.708,16.62 15.174,16.98 14.562,17.244 C13.95,17.508 13.296,17.64 12.6,17.64 Z M34.704,24.588 L34.704,15.372 L41.292,24.588 L47.628,24.588 L47.628,0.576 L40.104,0.576 L40.104,9.828 L33.48,0.576 L27.18,0.576 L27.18,24.588 L34.704,24.588 Z M31.464,21.708 L30.528,21.708 L30.528,3.456 L31.464,3.456 L43.344,20.088 L43.344,3.456 L44.28,3.456 L44.28,21.708 L43.344,21.708 L31.464,5.076 L31.464,21.708 Z M64.764,24.588 L64.764,18.288 L58.14,18.288 L58.14,0.576 L50.148,0.576 L50.148,24.588 L64.764,24.588 Z M62.748,21.708 L53.748,21.708 L53.748,3.456 L54.684,3.456 L54.684,20.844 L62.748,20.844 L62.748,21.708 Z M74.16,24.588 L74.16,0.576 L66.024,0.576 L66.024,24.588 L74.16,24.588 Z M70.56,21.708 L69.624,21.708 L69.624,3.456 L70.56,3.456 L70.56,21.708 Z M84.204,24.588 L84.204,15.372 L90.792,24.588 L97.128,24.588 L97.128,0.576 L89.604,0.576 L89.604,9.828 L82.98,0.576 L76.68,0.576 L76.68,24.588 L84.204,24.588 Z M80.964,21.708 L80.028,21.708 L80.028,3.456 L80.964,3.456 L92.844,20.088 L92.844,3.456 L93.78,3.456 L93.78,21.708 L92.844,21.708 L80.964,5.076 L80.964,21.708 Z M114.048,24.588 L114.048,18.288 L107.316,18.288 L107.316,15.516 L113.688,15.516 L113.688,9.54 L107.316,9.54 L107.316,6.876 L113.796,6.876 L113.796,0.576 L99.648,0.576 L99.648,24.588 L114.048,24.588 Z M111.384,21.708 L103.248,21.708 L103.248,3.456 L111.384,3.456 L111.384,4.32 L104.184,4.32 L104.184,12.096 L111.024,12.096 L111.024,12.96 L104.184,12.96 L104.184,20.844 L111.384,20.844 L111.384,21.708 Z M115.848,24.588 L130.968,18.468 L130.968,14.004 L115.848,7.884 L115.848,13.86 L121.752,16.236 L115.848,18.612 L115.848,24.588 Z M118.008,21.06 L118.008,20.124 L127.692,16.236 L118.008,12.348 L118.008,11.412 L128.808,15.804 L128.808,16.668 L118.008,21.06 Z M132.768,24.588 L147.888,18.468 L147.888,14.004 L132.768,7.884 L132.768,13.86 L138.672,16.236 L132.768,18.612 L132.768,24.588 Z M134.928,21.06 L134.928,20.124 L144.612,16.236 L134.928,12.348 L134.928,11.412 L145.728,15.804 L145.728,16.668 L134.928,21.06 Z M12.96,52.2 C14.352,52.2 15.588,52.056 16.668,51.768 C17.748,51.48 18.672,51.168 19.44,50.832 C20.328,50.424 21.096,49.956 21.744,49.428 L21.744,49.428 L17.964,42.768 C17.604,43.128 17.184,43.44 16.704,43.704 C16.296,43.944 15.792,44.16 15.192,44.352 C14.592,44.544 13.908,44.64 13.14,44.64 C12.372,44.64 11.664,44.508 11.016,44.244 C10.368,43.98 9.804,43.62 9.324,43.164 C8.844,42.708 8.466,42.174 8.19,41.562 C7.914,40.95 7.776,40.296 7.776,39.6 C7.776,38.904 7.908,38.25 8.172,37.638 C8.436,37.026 8.802,36.492 9.27,36.036 C9.738,35.58 10.284,35.22 10.908,34.956 C11.532,34.692 12.216,34.56 12.96,34.56 C13.68,34.56 14.322,34.65 14.886,34.83 C15.45,35.01 15.936,35.196 16.344,35.388 C16.8,35.652 17.22,35.928 17.604,36.216 L17.604,36.216 L21.384,29.556 C20.736,29.1 19.968,28.68 19.08,28.296 C18.312,27.96 17.394,27.66 16.326,27.396 C15.258,27.132 14.04,27 12.672,27 C10.944,27 9.312,27.294 7.776,27.882 C6.24,28.47 4.896,29.316 3.744,30.42 C2.592,31.524 1.68,32.85 1.008,34.398 C0.336,35.946 -5.68434189e-14,37.68 -5.68434189e-14,39.6 C-5.68434189e-14,41.472 0.324,43.182 0.972,44.73 C1.62,46.278 2.52,47.604 3.672,48.708 C4.824,49.812 6.192,50.67 7.776,51.282 C9.36,51.894 11.088,52.2 12.96,52.2 Z M13.068,48.816 C11.772,48.816 10.548,48.6 9.396,48.168 C8.244,47.736 7.236,47.118 6.372,46.314 C5.508,45.51 4.83,44.544 4.338,43.416 C3.846,42.288 3.6,41.016 3.6,39.6 C3.6,38.208 3.858,36.942 4.374,35.802 C4.89,34.662 5.574,33.69 6.426,32.886 C7.278,32.082 8.262,31.464 9.378,31.032 C10.494,30.6 11.664,30.384 12.888,30.384 C13.584,30.384 14.196,30.432 14.724,30.528 C15.252,30.624 15.72,30.732 16.128,30.852 C16.56,30.996 16.968,31.152 17.352,31.32 L17.352,31.32 L16.848,32.184 C16.56,32.016 16.212,31.872 15.804,31.752 C15.468,31.632 15.054,31.53 14.562,31.446 C14.07,31.362 13.512,31.32 12.888,31.32 C11.616,31.32 10.464,31.536 9.432,31.968 C8.4,32.4 7.524,32.988 6.804,33.732 C6.084,34.476 5.526,35.352 5.13,36.36 C4.734,37.368 4.536,38.448 4.536,39.6 C4.536,40.752 4.734,41.832 5.13,42.84 C5.526,43.848 6.09,44.724 6.822,45.468 C7.554,46.212 8.448,46.8 9.504,47.232 C10.56,47.664 11.748,47.88 13.068,47.88 C13.74,47.88 14.328,47.826 14.832,47.718 C15.336,47.61 15.768,47.484 16.128,47.34 C16.536,47.196 16.896,47.016 17.208,46.8 L17.208,46.8 L17.712,47.664 C17.352,47.88 16.944,48.072 16.488,48.24 C16.08,48.384 15.588,48.516 15.012,48.636 C14.436,48.756 13.788,48.816 13.068,48.816 Z M28.224,51.588 L29.016,49.428 L36.288,49.428 L37.08,51.588 L44.64,51.588 L35.532,27.576 L29.772,27.576 L20.664,51.588 L28.224,51.588 Z M26.028,48.708 L25.02,48.708 L31.968,30.456 L33.336,30.456 L40.284,48.708 L39.276,48.708 L38.592,46.908 L26.712,46.908 L26.028,48.708 Z M38.268,46.044 L32.652,31.32 L27.036,46.044 L38.268,46.044 Z M34.272,44.136 L31.032,44.136 L32.652,39.924 L34.272,44.136 Z M51.048,52.2 C52.56,52.2 53.868,52.002 54.972,51.606 C56.076,51.21 56.982,50.67 57.69,49.986 C58.398,49.302 58.92,48.498 59.256,47.574 C59.592,46.65 59.76,45.66 59.76,44.604 C59.76,43.596 59.598,42.684 59.274,41.868 C58.95,41.052 58.554,40.32 58.086,39.672 C57.618,39.024 57.102,38.448 56.538,37.944 C55.974,37.44 55.458,36.996 54.99,36.612 C54.522,36.228 54.126,35.892 53.802,35.604 C53.478,35.316 53.316,35.076 53.316,34.884 C53.316,34.668 53.388,34.5 53.532,34.38 C53.676,34.26 53.844,34.176 54.036,34.128 C54.228,34.08 54.432,34.05 54.648,34.038 C54.864,34.026 55.044,34.02 55.188,34.02 C55.452,34.02 55.704,34.032 55.944,34.056 C56.184,34.08 56.4,34.104 56.592,34.128 C56.832,34.152 57.048,34.176 57.24,34.2 L57.24,34.2 L57.24,27.468 C56.736,27.396 56.22,27.324 55.692,27.252 C55.236,27.204 54.72,27.15 54.144,27.09 C53.568,27.03 52.992,27 52.416,27 C51.312,27 50.274,27.15 49.302,27.45 C48.33,27.75 47.484,28.188 46.764,28.764 C46.044,29.34 45.48,30.06 45.072,30.924 C44.664,31.788 44.46,32.784 44.46,33.912 C44.46,34.92 44.628,35.814 44.964,36.594 C45.3,37.374 45.726,38.076 46.242,38.7 C46.758,39.324 47.31,39.876 47.898,40.356 C48.486,40.836 49.038,41.274 49.554,41.67 C50.07,42.066 50.496,42.426 50.832,42.75 C51.168,43.074 51.336,43.392 51.336,43.704 C51.336,44.52 50.784,44.928 49.68,44.928 C49.056,44.928 48.438,44.892 47.826,44.82 C47.214,44.748 46.668,44.652 46.188,44.532 C45.612,44.436 45.06,44.304 44.532,44.136 L44.532,44.136 L44.532,51.336 C45.108,51.504 45.744,51.648 46.44,51.768 C47.04,51.888 47.73,51.99 48.51,52.074 C49.29,52.158 50.136,52.2 51.048,52.2 Z M50.832,48.816 C50.448,48.816 50.07,48.798 49.698,48.762 C49.326,48.726 48.972,48.684 48.636,48.636 C48.252,48.588 47.892,48.528 47.556,48.456 L47.556,48.456 L47.556,47.52 C47.892,47.592 48.24,47.652 48.6,47.7 C49.272,47.82 50.016,47.88 50.832,47.88 C52.2,47.88 53.274,47.58 54.054,46.98 C54.834,46.38 55.224,45.504 55.224,44.352 C55.224,43.728 55.05,43.128 54.702,42.552 C54.354,41.976 53.91,41.418 53.37,40.878 C52.83,40.338 52.254,39.804 51.642,39.276 C51.03,38.748 50.454,38.202 49.914,37.638 C49.374,37.074 48.93,36.498 48.582,35.91 C48.234,35.322 48.06,34.692 48.06,34.02 C48.06,32.772 48.48,31.854 49.32,31.266 C50.16,30.678 51.228,30.384 52.524,30.384 C52.74,30.384 52.95,30.39 53.154,30.402 C53.358,30.414 53.544,30.432 53.712,30.456 C53.904,30.48 54.084,30.492 54.252,30.492 L54.252,30.492 L54.252,31.428 C54.06,31.428 53.868,31.416 53.676,31.392 C53.484,31.368 53.286,31.35 53.082,31.338 C52.878,31.326 52.68,31.32 52.488,31.32 C51.264,31.32 50.376,31.554 49.824,32.022 C49.272,32.49 48.996,33.156 48.996,34.02 C48.996,34.596 49.17,35.154 49.518,35.694 C49.866,36.234 50.31,36.774 50.85,37.314 C51.39,37.854 51.966,38.388 52.578,38.916 C53.19,39.444 53.766,39.996 54.306,40.572 C54.846,41.148 55.29,41.748 55.638,42.372 C55.986,42.996 56.16,43.656 56.16,44.352 C56.16,45.168 56.01,45.858 55.71,46.422 C55.41,46.986 55.008,47.448 54.504,47.808 C54,48.168 53.43,48.426 52.794,48.582 C52.158,48.738 51.504,48.816 50.832,48.816 Z M69.516,51.588 L69.516,27.576 L61.38,27.576 L61.38,51.588 L69.516,51.588 Z M65.916,48.708 L64.98,48.708 L64.98,30.456 L65.916,30.456 L65.916,48.708 Z M79.56,51.588 L79.56,42.372 L86.148,51.588 L92.484,51.588 L92.484,27.576 L84.96,27.576 L84.96,36.828 L78.336,27.576 L72.036,27.576 L72.036,51.588 L79.56,51.588 Z M76.32,48.708 L75.384,48.708 L75.384,30.456 L76.32,30.456 L88.2,47.088 L88.2,30.456 L89.136,30.456 L89.136,48.708 L88.2,48.708 L76.32,32.076 L76.32,48.708 Z" id="online&gt;&gt;casin" fill="#FED766"></path>
                <path d="M107.064,52.2 C108.792,52.2 110.424,51.87 111.96,51.21 C113.496,50.55 114.834,49.65 115.974,48.51 C117.114,47.37 118.014,46.032 118.674,44.496 C119.334,42.96 119.664,41.328 119.664,39.6 C119.664,37.872 119.334,36.24 118.674,34.704 C118.014,33.168 117.114,31.83 115.974,30.69 C114.834,29.55 113.496,28.65 111.96,27.99 C110.424,27.33 108.792,27 107.064,27 C105.336,27 103.704,27.33 102.168,27.99 C100.632,28.65 99.294,29.55 98.154,30.69 C97.014,31.83 96.114,33.168 95.454,34.704 C94.794,36.24 94.464,37.872 94.464,39.6 C94.464,41.328 94.794,42.96 95.454,44.496 C96.114,46.032 97.014,47.37 98.154,48.51 C99.294,49.65 100.632,50.55 102.168,51.21 C103.704,51.87 105.336,52.2 107.064,52.2 Z M107.064,48.816 C105.792,48.816 104.598,48.576 103.482,48.096 C102.366,47.616 101.388,46.956 100.548,46.116 C99.708,45.276 99.048,44.298 98.568,43.182 C98.088,42.066 97.848,40.872 97.848,39.6 C97.848,38.328 98.088,37.134 98.568,36.018 C99.048,34.902 99.708,33.924 100.548,33.084 C101.388,32.244 102.366,31.584 103.482,31.104 C104.598,30.624 105.792,30.384 107.064,30.384 C108.336,30.384 109.53,30.624 110.646,31.104 C111.762,31.584 112.74,32.244 113.58,33.084 C114.42,33.924 115.08,34.902 115.56,36.018 C116.04,37.134 116.28,38.328 116.28,39.6 C116.28,40.872 116.04,42.066 115.56,43.182 C115.08,44.298 114.42,45.276 113.58,46.116 C112.74,46.956 111.762,47.616 110.646,48.096 C109.53,48.576 108.336,48.816 107.064,48.816 Z M107.064,47.88 C108.216,47.88 109.29,47.664 110.286,47.232 C111.282,46.8 112.158,46.206 112.914,45.45 C113.67,44.694 114.264,43.818 114.696,42.822 C115.128,41.826 115.344,40.752 115.344,39.6 C115.344,38.448 115.128,37.374 114.696,36.378 C114.264,35.382 113.67,34.506 112.914,33.75 C112.158,32.994 111.282,32.4 110.286,31.968 C109.29,31.536 108.216,31.32 107.064,31.32 C105.912,31.32 104.838,31.536 103.842,31.968 C102.846,32.4 101.97,32.994 101.214,33.75 C100.458,34.506 99.864,35.382 99.432,36.378 C99,37.374 98.784,38.448 98.784,39.6 C98.784,40.752 99,41.826 99.432,42.822 C99.864,43.818 100.458,44.694 101.214,45.45 C101.97,46.206 102.846,46.8 103.842,47.232 C104.838,47.664 105.912,47.88 107.064,47.88 Z M107.064,44.64 C106.368,44.64 105.714,44.508 105.102,44.244 C104.49,43.98 103.956,43.62 103.5,43.164 C103.044,42.708 102.684,42.174 102.42,41.562 C102.156,40.95 102.024,40.296 102.024,39.6 C102.024,38.904 102.156,38.25 102.42,37.638 C102.684,37.026 103.044,36.492 103.5,36.036 C103.956,35.58 104.49,35.22 105.102,34.956 C105.714,34.692 106.368,34.56 107.064,34.56 C107.76,34.56 108.414,34.692 109.026,34.956 C109.638,35.22 110.172,35.58 110.628,36.036 C111.084,36.492 111.444,37.026 111.708,37.638 C111.972,38.25 112.104,38.904 112.104,39.6 C112.104,40.296 111.972,40.95 111.708,41.562 C111.444,42.174 111.084,42.708 110.628,43.164 C110.172,43.62 109.638,43.98 109.026,44.244 C108.414,44.508 107.76,44.64 107.064,44.64 Z" id="o" fill="#FFFFFF"></path>
                <path d="M136.044,51.588 L136.044,45.288 L129.312,45.288 L129.312,42.516 L135.684,42.516 L135.684,36.54 L129.312,36.54 L129.312,33.876 L135.792,33.876 L135.792,27.576 L121.644,27.576 L121.644,51.588 L136.044,51.588 Z M133.38,48.708 L125.244,48.708 L125.244,30.456 L133.38,30.456 L133.38,31.32 L126.18,31.32 L126.18,39.096 L133.02,39.096 L133.02,39.96 L126.18,39.96 L126.18,47.844 L133.38,47.844 L133.38,48.708 Z M145.872,51.588 L145.872,45.504 L149.472,51.588 L158.472,51.588 L153.972,43.668 C154.572,43.236 155.112,42.708 155.592,42.084 C156,41.532 156.372,40.836 156.708,39.996 C157.044,39.156 157.212,38.136 157.212,36.936 C157.212,35.424 156.942,34.086 156.402,32.922 C155.862,31.758 155.112,30.78 154.152,29.988 C153.192,29.196 152.058,28.596 150.75,28.188 C149.442,27.78 148.02,27.576 146.484,27.576 L146.484,27.576 L138.204,27.576 L138.204,51.588 L145.872,51.588 Z M142.74,48.708 L141.804,48.708 L141.804,30.456 L145.692,30.456 C146.82,30.456 147.864,30.594 148.824,30.87 C149.784,31.146 150.618,31.554 151.326,32.094 C152.034,32.634 152.592,33.3 153,34.092 C153.408,34.884 153.612,35.808 153.612,36.864 C153.612,38.376 153.228,39.606 152.46,40.554 C151.692,41.502 150.66,42.204 149.364,42.66 L149.364,42.66 L152.964,48.708 L151.848,48.708 L148.428,42.948 C147.54,43.14 146.628,43.236 145.692,43.236 L145.692,43.236 L142.74,43.236 L142.74,48.708 Z M145.692,42.372 C147.876,42.372 149.586,41.898 150.822,40.95 C152.058,40.002 152.676,38.64 152.676,36.864 C152.676,35.088 152.058,33.72 150.822,32.76 C149.586,31.8 147.876,31.32 145.692,31.32 L145.692,31.32 L142.74,31.32 L142.74,42.372 L145.692,42.372 Z M146.268,39.384 L145.872,39.384 L145.872,34.056 L146.268,34.056 C147.18,34.056 147.954,34.26 148.59,34.668 C149.226,35.076 149.544,35.76 149.544,36.72 C149.544,37.68 149.226,38.364 148.59,38.772 C147.954,39.18 147.18,39.384 146.268,39.384 L146.268,39.384 Z" id="er" fill="#FED766"></path>
            </g>
        </g>
    </g>
</svg>