
<svg width="138px" height="53px" viewBox="0 0 138 53" version="1.1" xmlns="http://www.w3.org/2000/svg" xmlns:xlink="http://www.w3.org/1999/xlink">
    <g id="Page-1" stroke="none" stroke-width="1" fill="none" fill-rule="evenodd">
        <g id="Artboard" transform="translate(-425.000000, -635.000000)" fill-rule="nonzero">
            <g id="uudet&gt;&gt;-kasinot" transform="translate(425.152000, 635.988000)">
                <path d="M9.936,24.624 C11.448,24.624 12.816,24.432 14.04,24.048 C15.264,23.664 16.314,23.088 17.19,22.32 C18.066,21.552 18.738,20.58 19.206,19.404 C19.674,18.228 19.908,16.848 19.908,15.264 L19.908,15.264 L19.908,-5.68434189e-14 L12.204,-5.68434189e-14 L12.204,14.94 C12.204,15.78 12.03,16.422 11.682,16.866 C11.334,17.31 10.752,17.532 9.936,17.532 C9.12,17.532 8.538,17.31 8.19,16.866 C7.842,16.422 7.668,15.78 7.668,14.94 L7.668,14.94 L7.668,-5.68434189e-14 L-2.84217094e-14,-5.68434189e-14 L-2.84217094e-14,15.264 C-2.84217094e-14,16.848 0.234,18.228 0.702,19.404 C1.17,20.58 1.836,21.552 2.7,22.32 C3.564,23.088 4.608,23.664 5.832,24.048 C7.056,24.432 8.424,24.624 9.936,24.624 Z M9.936,21.24 C7.896,21.24 6.33,20.706 5.238,19.638 C4.146,18.57 3.6,17.028 3.6,15.012 L3.6,15.012 L3.6,2.88 L4.536,2.88 L4.536,15.012 C4.536,18.54 6.336,20.304 9.936,20.304 C13.536,20.304 15.336,18.54 15.336,15.012 L15.336,15.012 L15.336,2.88 L16.308,2.88 L16.308,15.012 C16.308,17.028 15.756,18.57 14.652,19.638 C13.548,20.706 11.976,21.24 9.936,21.24 Z M32.148,24.624 C33.66,24.624 35.028,24.432 36.252,24.048 C37.476,23.664 38.526,23.088 39.402,22.32 C40.278,21.552 40.95,20.58 41.418,19.404 C41.886,18.228 42.12,16.848 42.12,15.264 L42.12,15.264 L42.12,-5.68434189e-14 L34.416,-5.68434189e-14 L34.416,14.94 C34.416,15.78 34.242,16.422 33.894,16.866 C33.546,17.31 32.964,17.532 32.148,17.532 C31.332,17.532 30.75,17.31 30.402,16.866 C30.054,16.422 29.88,15.78 29.88,14.94 L29.88,14.94 L29.88,-5.68434189e-14 L22.212,-5.68434189e-14 L22.212,15.264 C22.212,16.848 22.446,18.228 22.914,19.404 C23.382,20.58 24.048,21.552 24.912,22.32 C25.776,23.088 26.82,23.664 28.044,24.048 C29.268,24.432 30.636,24.624 32.148,24.624 Z M32.148,21.24 C30.108,21.24 28.542,20.706 27.45,19.638 C26.358,18.57 25.812,17.028 25.812,15.012 L25.812,15.012 L25.812,2.88 L26.748,2.88 L26.748,15.012 C26.748,18.54 28.548,20.304 32.148,20.304 C35.748,20.304 37.548,18.54 37.548,15.012 L37.548,15.012 L37.548,2.88 L38.52,2.88 L38.52,15.012 C38.52,17.028 37.968,18.57 36.864,19.638 C35.76,20.706 34.188,21.24 32.148,21.24 Z M51.192,24.012 C53.448,24.012 55.458,23.754 57.222,23.238 C58.986,22.722 60.474,21.96 61.686,20.952 C62.898,19.944 63.822,18.69 64.458,17.19 C65.094,15.69 65.412,13.956 65.412,11.988 C65.412,10.02 65.094,8.286 64.458,6.786 C63.822,5.286 62.898,4.032 61.686,3.024 C60.474,2.016 58.986,1.26 57.222,0.756 C55.458,0.252 53.448,-5.68434189e-14 51.192,-5.68434189e-14 L51.192,-5.68434189e-14 L44.532,-5.68434189e-14 L44.532,24.012 L51.192,24.012 Z M51.192,21.132 L48.132,21.132 L48.132,2.88 L51.192,2.88 C54.696,2.88 57.342,3.672 59.13,5.256 C60.918,6.84 61.812,9.084 61.812,11.988 C61.812,14.892 60.918,17.142 59.13,18.738 C57.342,20.334 54.696,21.132 51.192,21.132 L51.192,21.132 Z M51.192,20.268 C54.24,20.268 56.61,19.572 58.302,18.18 C59.994,16.788 60.84,14.724 60.84,11.988 C60.84,9.252 59.994,7.194 58.302,5.814 C56.61,4.434 54.24,3.744 51.192,3.744 L51.192,3.744 L49.068,3.744 L49.068,20.268 L51.192,20.268 Z M52.2,17.172 L52.2,6.84 C54,6.84 55.392,7.26 56.376,8.1 C57.36,8.94 57.852,10.236 57.852,11.988 C57.852,13.74 57.36,15.042 56.376,15.894 C55.392,16.746 54,17.172 52.2,17.172 L52.2,17.172 Z M81.792,24.012 L81.792,17.712 L75.06,17.712 L75.06,14.94 L81.432,14.94 L81.432,8.964 L75.06,8.964 L75.06,6.3 L81.54,6.3 L81.54,-5.68434189e-14 L67.392,-5.68434189e-14 L67.392,24.012 L81.792,24.012 Z M79.128,21.132 L70.992,21.132 L70.992,2.88 L79.128,2.88 L79.128,3.744 L71.928,3.744 L71.928,11.52 L78.768,11.52 L78.768,12.384 L71.928,12.384 L71.928,20.268 L79.128,20.268 L79.128,21.132 Z M95.04,24.012 L95.04,6.3 L99.468,6.3 L99.468,-5.68434189e-14 L82.692,-5.68434189e-14 L82.692,6.3 L87.12,6.3 L87.12,24.012 L95.04,24.012 Z M91.548,21.132 L90.612,21.132 L90.612,3.744 L85.464,3.744 L85.464,2.88 L96.696,2.88 L96.696,3.744 L91.548,3.744 L91.548,21.132 Z M100.368,24.012 L115.488,17.892 L115.488,13.428 L100.368,7.308 L100.368,13.284 L106.272,15.66 L100.368,18.036 L100.368,24.012 Z M102.528,20.484 L102.528,19.548 L112.212,15.66 L102.528,11.772 L102.528,10.836 L113.328,15.228 L113.328,16.092 L102.528,20.484 Z M117.288,24.012 L132.408,17.892 L132.408,13.428 L117.288,7.308 L117.288,13.284 L123.192,15.66 L117.288,18.036 L117.288,24.012 Z M119.448,20.484 L119.448,19.548 L129.132,15.66 L119.448,11.772 L119.448,10.836 L130.248,15.228 L130.248,16.092 L119.448,20.484 Z M7.884,51.012 L7.884,43.596 L12.996,51.012 L22.248,51.012 L13.356,37.98 L21.816,27 L12.42,27 L7.884,32.544 L7.884,27 L0.108,27 L0.108,51.012 L7.884,51.012 Z M4.644,48.132 L3.708,48.132 L3.708,29.88 L4.644,29.88 L4.644,41.832 L14.328,29.88 L15.48,29.88 L9.036,37.872 L16.056,48.132 L14.94,48.132 L8.388,38.628 L4.644,43.272 L4.644,48.132 Z M28.548,51.012 L29.34,48.852 L36.612,48.852 L37.404,51.012 L44.964,51.012 L35.856,27 L30.096,27 L20.988,51.012 L28.548,51.012 Z M26.352,48.132 L25.344,48.132 L32.292,29.88 L33.66,29.88 L40.608,48.132 L39.6,48.132 L38.916,46.332 L27.036,46.332 L26.352,48.132 Z M38.592,45.468 L32.976,30.744 L27.36,45.468 L38.592,45.468 Z M34.596,43.56 L31.356,43.56 L32.976,39.348 L34.596,43.56 Z M51.372,51.624 C52.884,51.624 54.192,51.426 55.296,51.03 C56.4,50.634 57.306,50.094 58.014,49.41 C58.722,48.726 59.244,47.922 59.58,46.998 C59.916,46.074 60.084,45.084 60.084,44.028 C60.084,43.02 59.922,42.108 59.598,41.292 C59.274,40.476 58.878,39.744 58.41,39.096 C57.942,38.448 57.426,37.872 56.862,37.368 C56.298,36.864 55.782,36.42 55.314,36.036 C54.846,35.652 54.45,35.316 54.126,35.028 C53.802,34.74 53.64,34.5 53.64,34.308 C53.64,34.092 53.712,33.924 53.856,33.804 C54,33.684 54.168,33.6 54.36,33.552 C54.552,33.504 54.756,33.474 54.972,33.462 C55.188,33.45 55.368,33.444 55.512,33.444 C55.776,33.444 56.028,33.456 56.268,33.48 C56.508,33.504 56.724,33.528 56.916,33.552 C57.156,33.576 57.372,33.6 57.564,33.624 L57.564,33.624 L57.564,26.892 C57.06,26.82 56.544,26.748 56.016,26.676 C55.56,26.628 55.044,26.574 54.468,26.514 C53.892,26.454 53.316,26.424 52.74,26.424 C51.636,26.424 50.598,26.574 49.626,26.874 C48.654,27.174 47.808,27.612 47.088,28.188 C46.368,28.764 45.804,29.484 45.396,30.348 C44.988,31.212 44.784,32.208 44.784,33.336 C44.784,34.344 44.952,35.238 45.288,36.018 C45.624,36.798 46.05,37.5 46.566,38.124 C47.082,38.748 47.634,39.3 48.222,39.78 C48.81,40.26 49.362,40.698 49.878,41.094 C50.394,41.49 50.82,41.85 51.156,42.174 C51.492,42.498 51.66,42.816 51.66,43.128 C51.66,43.944 51.108,44.352 50.004,44.352 C49.38,44.352 48.762,44.316 48.15,44.244 C47.538,44.172 46.992,44.076 46.512,43.956 C45.936,43.86 45.384,43.728 44.856,43.56 L44.856,43.56 L44.856,50.76 C45.432,50.928 46.068,51.072 46.764,51.192 C47.364,51.312 48.054,51.414 48.834,51.498 C49.614,51.582 50.46,51.624 51.372,51.624 Z M51.156,48.24 C50.772,48.24 50.394,48.222 50.022,48.186 C49.65,48.15 49.296,48.108 48.96,48.06 C48.576,48.012 48.216,47.952 47.88,47.88 L47.88,47.88 L47.88,46.944 C48.216,47.016 48.564,47.076 48.924,47.124 C49.596,47.244 50.34,47.304 51.156,47.304 C52.524,47.304 53.598,47.004 54.378,46.404 C55.158,45.804 55.548,44.928 55.548,43.776 C55.548,43.152 55.374,42.552 55.026,41.976 C54.678,41.4 54.234,40.842 53.694,40.302 C53.154,39.762 52.578,39.228 51.966,38.7 C51.354,38.172 50.778,37.626 50.238,37.062 C49.698,36.498 49.254,35.922 48.906,35.334 C48.558,34.746 48.384,34.116 48.384,33.444 C48.384,32.196 48.804,31.278 49.644,30.69 C50.484,30.102 51.552,29.808 52.848,29.808 C53.064,29.808 53.274,29.814 53.478,29.826 C53.682,29.838 53.868,29.856 54.036,29.88 C54.228,29.904 54.408,29.916 54.576,29.916 L54.576,29.916 L54.576,30.852 C54.384,30.852 54.192,30.84 54,30.816 C53.808,30.792 53.61,30.774 53.406,30.762 C53.202,30.75 53.004,30.744 52.812,30.744 C51.588,30.744 50.7,30.978 50.148,31.446 C49.596,31.914 49.32,32.58 49.32,33.444 C49.32,34.02 49.494,34.578 49.842,35.118 C50.19,35.658 50.634,36.198 51.174,36.738 C51.714,37.278 52.29,37.812 52.902,38.34 C53.514,38.868 54.09,39.42 54.63,39.996 C55.17,40.572 55.614,41.172 55.962,41.796 C56.31,42.42 56.484,43.08 56.484,43.776 C56.484,44.592 56.334,45.282 56.034,45.846 C55.734,46.41 55.332,46.872 54.828,47.232 C54.324,47.592 53.754,47.85 53.118,48.006 C52.482,48.162 51.828,48.24 51.156,48.24 Z M69.84,51.012 L69.84,27 L61.704,27 L61.704,51.012 L69.84,51.012 Z M66.24,48.132 L65.304,48.132 L65.304,29.88 L66.24,29.88 L66.24,48.132 Z M79.884,51.012 L79.884,41.796 L86.472,51.012 L92.808,51.012 L92.808,27 L85.284,27 L85.284,36.252 L78.66,27 L72.36,27 L72.36,51.012 L79.884,51.012 Z M76.644,48.132 L75.708,48.132 L75.708,29.88 L76.644,29.88 L88.524,46.512 L88.524,29.88 L89.46,29.88 L89.46,48.132 L88.524,48.132 L76.644,31.5 L76.644,48.132 Z" id="uudet&gt;&gt;kasin" fill="#FED766"></path>
                <path d="M107.388,51.624 C109.116,51.624 110.748,51.294 112.284,50.634 C113.82,49.974 115.158,49.074 116.298,47.934 C117.438,46.794 118.338,45.456 118.998,43.92 C119.658,42.384 119.988,40.752 119.988,39.024 C119.988,37.296 119.658,35.664 118.998,34.128 C118.338,32.592 117.438,31.254 116.298,30.114 C115.158,28.974 113.82,28.074 112.284,27.414 C110.748,26.754 109.116,26.424 107.388,26.424 C105.66,26.424 104.028,26.754 102.492,27.414 C100.956,28.074 99.618,28.974 98.478,30.114 C97.338,31.254 96.438,32.592 95.778,34.128 C95.118,35.664 94.788,37.296 94.788,39.024 C94.788,40.752 95.118,42.384 95.778,43.92 C96.438,45.456 97.338,46.794 98.478,47.934 C99.618,49.074 100.956,49.974 102.492,50.634 C104.028,51.294 105.66,51.624 107.388,51.624 Z M107.388,48.24 C106.116,48.24 104.922,48 103.806,47.52 C102.69,47.04 101.712,46.38 100.872,45.54 C100.032,44.7 99.372,43.722 98.892,42.606 C98.412,41.49 98.172,40.296 98.172,39.024 C98.172,37.752 98.412,36.558 98.892,35.442 C99.372,34.326 100.032,33.348 100.872,32.508 C101.712,31.668 102.69,31.008 103.806,30.528 C104.922,30.048 106.116,29.808 107.388,29.808 C108.66,29.808 109.854,30.048 110.97,30.528 C112.086,31.008 113.064,31.668 113.904,32.508 C114.744,33.348 115.404,34.326 115.884,35.442 C116.364,36.558 116.604,37.752 116.604,39.024 C116.604,40.296 116.364,41.49 115.884,42.606 C115.404,43.722 114.744,44.7 113.904,45.54 C113.064,46.38 112.086,47.04 110.97,47.52 C109.854,48 108.66,48.24 107.388,48.24 Z M107.388,47.304 C108.54,47.304 109.614,47.088 110.61,46.656 C111.606,46.224 112.482,45.63 113.238,44.874 C113.994,44.118 114.588,43.242 115.02,42.246 C115.452,41.25 115.668,40.176 115.668,39.024 C115.668,37.872 115.452,36.798 115.02,35.802 C114.588,34.806 113.994,33.93 113.238,33.174 C112.482,32.418 111.606,31.824 110.61,31.392 C109.614,30.96 108.54,30.744 107.388,30.744 C106.236,30.744 105.162,30.96 104.166,31.392 C103.17,31.824 102.294,32.418 101.538,33.174 C100.782,33.93 100.188,34.806 99.756,35.802 C99.324,36.798 99.108,37.872 99.108,39.024 C99.108,40.176 99.324,41.25 99.756,42.246 C100.188,43.242 100.782,44.118 101.538,44.874 C102.294,45.63 103.17,46.224 104.166,46.656 C105.162,47.088 106.236,47.304 107.388,47.304 Z M107.388,44.064 C106.692,44.064 106.038,43.932 105.426,43.668 C104.814,43.404 104.28,43.044 103.824,42.588 C103.368,42.132 103.008,41.598 102.744,40.986 C102.48,40.374 102.348,39.72 102.348,39.024 C102.348,38.328 102.48,37.674 102.744,37.062 C103.008,36.45 103.368,35.916 103.824,35.46 C104.28,35.004 104.814,34.644 105.426,34.38 C106.038,34.116 106.692,33.984 107.388,33.984 C108.084,33.984 108.738,34.116 109.35,34.38 C109.962,34.644 110.496,35.004 110.952,35.46 C111.408,35.916 111.768,36.45 112.032,37.062 C112.296,37.674 112.428,38.328 112.428,39.024 C112.428,39.72 112.296,40.374 112.032,40.986 C111.768,41.598 111.408,42.132 110.952,42.588 C110.496,43.044 109.962,43.404 109.35,43.668 C108.738,43.932 108.084,44.064 107.388,44.064 Z" id="o" fill="#FFFFFF"></path>
                <path d="M133.056,51.012 L133.056,33.3 L137.484,33.3 L137.484,27 L120.708,27 L120.708,33.3 L125.136,33.3 L125.136,51.012 L133.056,51.012 Z M129.564,48.132 L128.628,48.132 L128.628,30.744 L123.48,30.744 L123.48,29.88 L134.712,29.88 L134.712,30.744 L129.564,30.744 L129.564,48.132 Z" id="t" fill="#FED766"></path>
            </g>
        </g>
    </g>
</svg>